<?xml version="1.0" encoding="UTF-8" standalone="no"?>
<!-- Created with Inkscape (http://www.inkscape.org/) -->
<svg
   xmlns:dc="http://purl.org/dc/elements/1.1/"
   xmlns:cc="http://web.resource.org/cc/"
   xmlns:rdf="http://www.w3.org/1999/02/22-rdf-syntax-ns#"
   xmlns:svg="http://www.w3.org/2000/svg"
   xmlns="http://www.w3.org/2000/svg"
   xmlns:sodipodi="http://sodipodi.sourceforge.net/DTD/sodipodi-0.dtd"
   xmlns:inkscape="http://www.inkscape.org/namespaces/inkscape"
   id="svg1938"
   sodipodi:version="0.32"
   inkscape:version="0.44.1"
   width="731"
   height="741"
   version="1.0"
   sodipodi:docbase="C:\Documents and Settings\Frederick Brennan\Desktop"
   sodipodi:docname="Acetaldehyde-skeletal.svg">
  <metadata
     id="metadata1943">
    <rdf:RDF>
      <cc:Work
         rdf:about="">
        <dc:format>image/svg+xml</dc:format>
        <dc:type
           rdf:resource="http://purl.org/dc/dcmitype/StillImage" />
      </cc:Work>
    </rdf:RDF>
  </metadata>
  <defs
     id="defs1941" />
  <sodipodi:namedview
     inkscape:window-height="678"
     inkscape:window-width="1280"
     inkscape:pageshadow="2"
     inkscape:pageopacity="0.0"
     guidetolerance="10.0"
     gridtolerance="10.0"
     objecttolerance="10.0"
     borderopacity="1.0"
     bordercolor="#666666"
     pagecolor="#ffffff"
     id="base"
     inkscape:zoom="0.71951216"
     inkscape:cx="365.5"
     inkscape:cy="370.5"
     inkscape:window-x="-4"
     inkscape:window-y="-4"
     inkscape:current-layer="svg1938" />
  <path
     style="fill:none;fill-rule:evenodd;stroke:black;stroke-width:8.7;stroke-linecap:butt;stroke-linejoin:miter;stroke-opacity:1;stroke-miterlimit:4;stroke-dasharray:none"
     d="M 82.000004,597.84745 L 342.5215,447.4353 L 535.54604,558.87806"
     id="path2834" />
  <path
     style="fill:none;fill-rule:evenodd;stroke:black;stroke-width:8.7;stroke-linecap:butt;stroke-linejoin:miter;stroke-opacity:1;stroke-miterlimit:4;stroke-dasharray:none"
     d="M 322.44069,460.25422 L 322.44069,221.20337"
     id="path3721" />
  <path
     style="fill:none;fill-rule:evenodd;stroke:black;stroke-width:8.69999981;stroke-linecap:butt;stroke-linejoin:miter;stroke-miterlimit:4;stroke-dasharray:none;stroke-opacity:1"
     d="M 358.57629,458.86438 L 358.57629,219.81353"
     id="path4608" />
  <path
     transform="matrix(15.24105,0,0,15.24105,1073.29,-3537.512)"
     style=""
     d="M -48.083984,238.04249 C -48.943363,238.0425 -49.62598,238.36281 -50.131836,239.00343 C -50.637697,239.64406 -50.890627,240.51711 -50.890625,241.62257 C -50.890627,242.72414 -50.637697,243.59523 -50.131836,244.23585 C -49.62598,244.87648 -48.943363,245.19679 -48.083984,245.19679 C -47.224615,245.19679 -46.543952,244.87648 -46.041992,244.23585 C -45.540046,243.59523 -45.28907,242.72414 -45.289063,241.62257 C -45.28907,240.51711 -45.540046,239.64406 -46.041992,239.00343 C -46.543952,238.36281 -47.224615,238.0425 -48.083984,238.04249 L -48.083984,238.04249 z M -48.083984,237.08155 C -46.857428,237.08156 -45.87696,237.4927 -45.142578,238.31495 C -44.408212,239.13723 -44.041024,240.23976 -44.041016,241.62257 C -44.041024,243.00148 -44.408212,244.10206 -45.142578,244.92433 C -45.87696,245.74659 -46.857428,246.15773 -48.083984,246.15773 C -49.314457,246.15773 -50.297854,245.74757 -51.03418,244.92726 C -51.770509,244.10695 -52.138673,243.00539 -52.138672,241.62257 C -52.138673,240.23976 -51.770509,239.13723 -51.03418,238.31495 C -50.297854,237.4927 -49.314457,237.08156 -48.083984,237.08155 L -48.083984,237.08155 z "
     id="flowRoot4628" />
  <path
     style="font-size:185.09877014px;font-style:normal;font-weight:normal;fill:black;fill-opacity:1;stroke:none;stroke-width:1px;stroke-linecap:butt;stroke-linejoin:miter;stroke-opacity:1;font-family:Arial"
     d="M 549.94407,664.77203 L 549.94407,532.27457 L 567.47784,532.27457 L 567.47784,586.68349 L 636.34759,586.68349 L 636.34759,532.27457 L 653.88136,532.27457 L 653.88136,664.77203 L 636.34759,664.77203 L 636.34759,602.31927 L 567.47784,602.31927 L 567.47784,664.77203 L 549.94407,664.77203 z "
     id="text4636" />
</svg>
